<svg xmlns="http://www.w3.org/2000/svg"  viewBox="0 0 64 64" width="64px" height="64px"><linearGradient id="nFLDYJkx1HL0RZJHBF7Tya" x1="32" x2="32" y1="57.75" y2="9.24" gradientTransform="matrix(1 0 0 -1 0 66)" gradientUnits="userSpaceOnUse" spreadMethod="reflect"><stop offset="0" stop-color="#1a6dff"/><stop offset="1" stop-color="#c822ff"/></linearGradient><path fill="url(#nFLDYJkx1HL0RZJHBF7Tya)" d="M51,56H13c-2.757,0-5-2.243-5-5V13c0-2.757,2.243-5,5-5h38c2.757,0,5,2.243,5,5v38 C56,53.757,53.757,56,51,56z M13,10c-1.654,0-3,1.346-3,3v38c0,1.654,1.346,3,3,3h38c1.654,0,3-1.346,3-3V13c0-1.654-1.346-3-3-3H13 z"/><linearGradient id="nFLDYJkx1HL0RZJHBF7Tyb" x1="31.001" x2="31.001" y1="17.013" y2="49" gradientUnits="userSpaceOnUse" spreadMethod="reflect"><stop offset="0" stop-color="#6dc7ff"/><stop offset="1" stop-color="#e6abff"/></linearGradient><path fill="url(#nFLDYJkx1HL0RZJHBF7Tyb)" d="M40.66,46.286c-1.09,1.619-4.8,2.704-6.99,2.714h-0.35C27.8,49,26,45.854,26,39.606V32h-3 c-1.1,0-2-0.888-2-1.974v-3.527c0-0.839,0.54-1.589,1.35-1.866c3.99-1.352,4.11-2.606,4.27-4.343c0.02-0.148,0.03-0.296,0.05-0.444 v-0.859c0-1.086,0.89-1.974,2-1.974L32,17.026c1.11,0,2,0.888,2,1.974v5l3.979,0.005c1.11,0,2,0.888,2,1.974v4.034 c0,1.086-0.89,1.974-2,1.974L34,32c0,0,0,8.198,0,8.208c0,0.907,1.145,1.009,1.782,0.739c0.324-0.137,0.565-0.394,0.856-0.582 c0.304-0.196,0.669-0.295,1.032-0.295c1.022,0,1.647,0.768,2.049,1.622c0.417,0.888,0.744,1.84,1.107,2.748 c0.107,0.267,0.187,0.537,0.175,0.828c-0.007,0.187-0.042,0.373-0.104,0.55C40.855,45.937,40.66,46.176,40.66,46.286z"/></svg>